<mxfile host="app.diagrams.net" agent="Mozilla/5.0 (Windows NT 10.0; Win64; x64) AppleWebKit/537.36 (KHTML, like Gecko) Chrome/139.0.0.0 Safari/537.36" version="28.1.0">
  <diagram id="7gcUSTIZ7YSJ5vT40chW" name="Page-1">
    <mxGraphModel grid="1" page="1" gridSize="10" guides="1" tooltips="1" connect="1" arrows="1" fold="1" pageScale="1" pageWidth="1169" pageHeight="827" background="#ffffff" math="0" shadow="1">
      <root>
        <mxCell id="0" />
        <mxCell id="1" parent="0" />
        <mxCell id="M7SeO1mPTdzSNuAZCHN5-28" value="" style="whiteSpace=wrap;html=1;fillColor=none;rounded=0;labelBackgroundColor=none;fontColor=none;noLabel=1;" vertex="1" parent="1">
          <mxGeometry x="50" y="-730" width="1040" height="640" as="geometry" />
        </mxCell>
        <mxCell id="M7SeO1mPTdzSNuAZCHN5-29" value="" style="whiteSpace=wrap;html=1;rounded=0;fillColor=none;" vertex="1" parent="1">
          <mxGeometry x="110" y="-677.5" width="790" height="560" as="geometry" />
        </mxCell>
        <mxCell id="M7SeO1mPTdzSNuAZCHN5-30" value="Azure Cloud - US Central Region" style="image;aspect=fixed;html=1;points=[];align=left;fontSize=17;image=img/lib/azure2/other/Azure_A.svg;labelBackgroundColor=none;labelPosition=right;verticalLabelPosition=middle;verticalAlign=middle;spacing=8;" vertex="1" parent="1">
          <mxGeometry x="50" y="-770" width="31.82" height="30" as="geometry" />
        </mxCell>
        <mxCell id="M7SeO1mPTdzSNuAZCHN5-35" value="Virtual Network - ad-vnet (10.0.0.0/23)" style="image;aspect=fixed;html=1;points=[];align=left;fontSize=17;image=img/lib/azure2/networking/Virtual_Networks.svg;labelBackgroundColor=none;labelPosition=right;verticalLabelPosition=middle;verticalAlign=middle;spacing=8;" vertex="1" parent="1">
          <mxGeometry x="102.82" y="-713" width="40" height="23.88" as="geometry" />
        </mxCell>
        <mxCell id="M7SeO1mPTdzSNuAZCHN5-36" value="" style="whiteSpace=wrap;html=1;fillColor=none;rounded=0;" vertex="1" parent="1">
          <mxGeometry x="150" y="-630" width="320" height="220" as="geometry" />
        </mxCell>
        <mxCell id="M7SeO1mPTdzSNuAZCHN5-42" value="mini-ad-subnet (10.0.0.128/25)" style="image;aspect=fixed;html=1;points=[];align=left;fontSize=12;image=img/lib/azure2/networking/Subnet.svg;labelBackgroundColor=none;labelPosition=right;verticalLabelPosition=middle;verticalAlign=middle;spacing=9;" vertex="1" parent="1">
          <mxGeometry x="150" y="-660" width="33.4" height="20" as="geometry" />
        </mxCell>
        <mxCell id="M7SeO1mPTdzSNuAZCHN5-43" value="" style="whiteSpace=wrap;html=1;fillColor=none;rounded=0;" vertex="1" parent="1">
          <mxGeometry x="515.22" y="-630" width="348.18" height="490" as="geometry" />
        </mxCell>
        <mxCell id="M7SeO1mPTdzSNuAZCHN5-45" value="vm-subnet (10.0.0.0/25)" style="image;aspect=fixed;html=1;points=[];align=left;fontSize=12;image=img/lib/azure2/networking/Subnet.svg;labelPosition=right;verticalLabelPosition=middle;verticalAlign=middle;labelBackgroundColor=none;spacing=6;" vertex="1" parent="1">
          <mxGeometry x="509.99999999999994" y="-660" width="33.4" height="20" as="geometry" />
        </mxCell>
        <mxCell id="-MAp2PhC2MX8vbxwuHtW-7" value="win-ad-instance" style="image;sketch=0;aspect=fixed;html=1;points=[];align=center;fontSize=12;image=img/lib/mscae/VirtualMachineWindows.svg;labelBackgroundColor=none;" vertex="1" parent="1">
          <mxGeometry x="654.31" y="-552.2" width="70" height="64.4" as="geometry" />
        </mxCell>
        <mxCell id="-MAp2PhC2MX8vbxwuHtW-8" value="linux-ad-instance&lt;div&gt;&lt;br&gt;&lt;/div&gt;" style="image;sketch=0;aspect=fixed;html=1;points=[];align=center;fontSize=12;image=img/lib/mscae/VM_Linux.svg;labelBackgroundColor=none;" vertex="1" parent="1">
          <mxGeometry x="660" y="-282.2" width="70" height="64.4" as="geometry" />
        </mxCell>
        <mxCell id="-MAp2PhC2MX8vbxwuHtW-9" value="key vault&lt;div&gt;account&amp;nbsp;&lt;/div&gt;&lt;div&gt;credentials&lt;/div&gt;" style="image;aspect=fixed;html=1;points=[];align=center;fontSize=12;image=img/lib/azure2/security/Key_Vaults.svg;labelBackgroundColor=none;" vertex="1" parent="1">
          <mxGeometry x="960" y="-431.5" width="68" height="68" as="geometry" />
        </mxCell>
        <mxCell id="P3Sn6zYhS6wMDTIlGnOm-1" value="" style="whiteSpace=wrap;html=1;fillColor=none;rounded=0;" vertex="1" parent="1">
          <mxGeometry x="150" y="-360" width="320" height="220" as="geometry" />
        </mxCell>
        <mxCell id="P3Sn6zYhS6wMDTIlGnOm-2" value="bastion-subnet (10.0.1.0/25)" style="image;aspect=fixed;html=1;points=[];align=left;fontSize=12;image=img/lib/azure2/networking/Subnet.svg;labelBackgroundColor=none;labelPosition=right;verticalLabelPosition=middle;verticalAlign=middle;spacing=9;" vertex="1" parent="1">
          <mxGeometry x="150" y="-392" width="33.4" height="20" as="geometry" />
        </mxCell>
        <mxCell id="P3Sn6zYhS6wMDTIlGnOm-7" value="mcloud.mikecloud.com&lt;div&gt;Samba4&lt;/div&gt;&lt;div&gt;Domain Controller&lt;/div&gt;" style="image;aspect=fixed;perimeter=ellipsePerimeter;html=1;align=center;shadow=0;dashed=0;spacingTop=3;image=img/lib/active_directory/domain_controller.svg;labelBackgroundColor=none;" vertex="1" parent="1">
          <mxGeometry x="282.09" y="-570.0000000000001" width="49" height="70" as="geometry" />
        </mxCell>
        <mxCell id="P3Sn6zYhS6wMDTIlGnOm-8" value="Bastion Host&lt;div&gt;SSH and RDP Access&lt;/div&gt;" style="image;aspect=fixed;html=1;points=[];align=center;fontSize=12;image=img/lib/azure2/networking/Bastions.svg;labelBackgroundColor=none;" vertex="1" parent="1">
          <mxGeometry x="276.5" y="-290" width="54.59" height="64" as="geometry" />
        </mxCell>
      </root>
    </mxGraphModel>
  </diagram>
</mxfile>
